<?xml version="1.0" standalone="no"?>
<!DOCTYPE svg PUBLIC "-//W3C//DTD SVG 20010904//EN"
 "http://www.w3.org/TR/2001/REC-SVG-20010904/DTD/svg10.dtd">
<svg version="1.0" xmlns="http://www.w3.org/2000/svg"
 width="200.000000pt" height="200.000000pt" viewBox="0 0 200.000000 200.000000"
 preserveAspectRatio="xMidYMid meet">

<g transform="translate(0.000000,200.000000) scale(0.100000,-0.100000)"
fill="#000000" stroke="none">
<path d="M569 1684 c-59 -18 -140 -90 -168 -149 -22 -48 -126 -451 -137 -533
-7 -54 14 -154 43 -200 28 -46 76 -93 115 -113 59 -30 951 -289 997 -289 68 0
144 35 196 91 25 27 52 64 60 83 8 18 40 134 71 257 68 267 74 340 32 429 -32
70 -69 114 -122 145 -52 30 -956 295 -1005 294 -20 0 -57 -7 -82 -15z m555
-278 c342 -100 464 -140 483 -158 31 -28 53 -77 53 -118 0 -39 -106 -463 -125
-500 -17 -33 -56 -60 -98 -67 -48 -7 -939 256 -974 288 -31 29 -53 78 -53 117
0 48 109 473 130 508 21 33 71 63 106 64 11 0 226 -60 478 -134z"/>
<path d="M715 1291 c-130 -80 -125 -278 9 -348 32 -17 99 -19 136 -5 34 13 80
60 96 99 17 39 18 121 3 160 -13 34 -55 80 -91 99 -39 20 -117 18 -153 -5z"/>
<path d="M1195 1151 c-73 -44 -102 -106 -93 -201 15 -150 195 -216 295 -108
87 92 61 257 -49 314 -39 20 -117 18 -153 -5z"/>
<path d="M549 477 c-31 -27 -329 -363 -329 -371 0 -3 223 -6 495 -6 272 0 495
3 495 7 0 23 -65 197 -84 225 -21 31 -34 37 -251 100 -127 37 -246 68 -265 67
-22 0 -45 -8 -61 -22z"/>
</g>
</svg>
