<?xml version="1.0" standalone="no"?>
<!DOCTYPE svg PUBLIC "-//W3C//DTD SVG 20010904//EN"
 "http://www.w3.org/TR/2001/REC-SVG-20010904/DTD/svg10.dtd">
<svg version="1.0" xmlns="http://www.w3.org/2000/svg"
 width="400.000000pt" height="400.000000pt" viewBox="0 0 400.000000 400.000000"
 preserveAspectRatio="xMidYMid meet">

<g transform="translate(0.000000,400.000000) scale(0.100000,-0.100000)"
fill="#000000" stroke="none">
<path d="M1825 3274 c-85 -13 -192 -38 -259 -60 -551 -180 -931 -699 -929
-1269 1 -362 142 -688 411 -946 204 -197 437 -318 699 -364 126 -22 342 -20
463 5 176 36 336 101 474 194 38 25 70 46 72 46 7 0 97 82 164 150 183 187
301 411 357 680 24 116 24 362 0 477 -116 539 -497 933 -1024 1059 -84 20
-140 27 -253 29 -80 2 -158 1 -175 -1z m412 -298 c407 -116 706 -444 778 -855
53 -299 -42 -634 -244 -862 l-53 -60 -44 76 c-52 87 -131 171 -216 226 -128
82 -245 108 -493 109 -302 0 -442 -47 -595 -200 -54 -54 -97 -108 -119 -148
-32 -62 -33 -63 -53 -45 -48 43 -145 186 -190 280 -76 158 -101 267 -101 443
0 163 12 236 67 380 129 345 430 598 802 675 112 23 345 13 461 -19z m25
-1673 c90 -42 150 -100 193 -186 19 -38 35 -75 35 -82 0 -19 -167 -93 -270
-119 -234 -59 -473 -37 -687 64 -96 45 -98 51 -56 135 31 65 94 133 154 168
84 49 135 57 359 54 l205 -3 67 -31z"/>
<path d="M1855 2740 c-279 -60 -458 -322 -416 -606 41 -278 292 -475 576 -451
280 24 485 248 485 532 0 234 -137 429 -356 506 -66 23 -223 34 -289 19z m220
-279 c103 -47 155 -129 155 -247 0 -157 -108 -264 -266 -264 -104 0 -190 50
-234 136 -36 70 -36 189 0 258 29 56 80 101 136 121 56 20 161 18 209 -4z"/>
</g>
</svg>
